<svg width="200.56923mm" height="175.72475mm" viewBox="0 0 200.56923 175.72475" xmlns="http://www.w3.org/2000/svg">
  <g transform="translate(-341.95552,-53.816747)">
    <g transform="translate(15.212189,33.321951)" style="fill:#22e06a;fill-opacity:1">
      <path style="fill:#22e06a;fill-opacity:1;stroke-width:0.264583" d="m 426.49541,20.513477 c -2.53292,0.177108 -4.81223,1.601364 -6.0818,3.800284 l -52.93268,91.681229 -39.703,68.76789 c -2.93967,5.09188 0.73505,11.45661 6.61458,11.45667 h 105.86485 79.40601 c 5.87953,-6e-5 9.55425,-6.36479 6.61458,-11.45667 l -52.93217,-91.681223 -39.703,-68.767896 c -1.46009,-2.528918 -4.23433,-4.003991 -7.14737,-3.800284 z"/>
    </g>
    <path d="m 442.44151,112.59785 c 10.89456,-0.0294 21.77374,0.33291 24.9048,1.10024 18.16066,4.45082 35.71071,13.53969 47.98578,24.85243 8.87021,8.17481 15.22133,14.18661 16.21657,15.34937 2.27217,2.65448 3.21391,6.04251 2.29265,8.24739 -0.487,1.16559 -8.37889,9.64325 -17.45502,18.75132 -6.49799,6.52082 -11.77836,9.84655 -23.09636,14.5445 -2.43619,1.01128 -8.55868,3.59204 -13.60505,5.73526 -5.04636,2.14322 -10.71996,4.40195 -12.60866,5.0198 l -13.80921,3.00538 c -3.83618,0.48165 -13.15749,0.64819 -17.24367,0.30803 -7.65437,-0.63718 -17.39937,-2.6625 -24.94182,-5.1824 -14.40439,-4.81246 -26.96098,-11.29515 -36.43673,-18.81095 -2.63565,-2.09048 -13.55541,-12.206 -19.18402,-17.77121 -2.76668,-2.73554 -4.34874,-5.49272 -4.61149,-8.03873 -0.231,-2.2383 0.26498,-3.06562 3.73616,-6.23205 1.59134,-1.45165 4.70534,-4.84775 6.91952,-7.54642 6.74191,-8.21714 9.10658,-10.11388 20.73231,-16.62942 18.29568,-10.25362 23.48708,-12.53282 35.20639,-15.45595 3.19292,-0.79635 14.10326,-1.21717 24.99785,-1.24659 z" style="fill:#ffffff;fill-opacity:1;stroke-width:0.462504"/>
    <path style="fill:#030d07;fill-opacity:1;stroke-width:0.519968" d="m 442.49623,120.3747 c -22.51598,-4e-5 -40.76826,18.25286 -40.76822,40.76884 -10e-6,22.51597 18.25225,40.76887 40.76822,40.76883 22.51558,-5.3e-4 40.76824,-18.25326 40.76823,-40.76883 3e-5,-22.51557 -18.25265,-40.76832 -40.76823,-40.76884 z"/>
  </g>
</svg>
